<?xml version="1.0" encoding="UTF-8"?> <svg xmlns="http://www.w3.org/2000/svg" width="200" height="200" viewBox="0 0 200 200" fill="none"> <circle cx="100" cy="100" r="100" fill="#010101"></circle> <path d="M106.5 94.8701C102.2 90.1001 92.8403 86.5701 83.7003 93.7901V79.0601C81.8303 79.0601 80.2003 79.0601 78.5703 79.0601C77.8103 79.0601 77.5703 79.4001 77.5703 80.0601C77.5703 80.5601 77.5703 81.0601 77.5703 81.5601V117.09C77.5703 120.44 77.5703 120.45 80.9503 120.43C83.8503 120.43 83.4803 120.85 83.5103 118.01V116.7C87.1103 119.83 91.0403 121.42 95.6203 121.07C97.8003 120.955 99.9315 120.381 101.875 119.387C103.819 118.393 105.531 117 106.9 115.3C109.271 112.402 110.533 108.755 110.46 105.011C110.387 101.268 108.983 97.6728 106.5 94.8701V94.8701ZM93.9903 115.87C91.2224 115.823 88.5827 114.695 86.6355 112.727C84.6883 110.76 83.5882 108.108 83.5703 105.34C83.5889 102.555 84.7129 99.8919 86.6952 97.9359C87.6767 96.9674 88.8394 96.2017 90.1168 95.6825C91.3942 95.1634 92.7614 94.9009 94.1403 94.9101C95.5192 94.9192 96.8828 95.1999 98.1532 95.7361C99.4236 96.2723 100.576 97.0534 101.544 98.0349C102.513 99.0165 103.279 100.179 103.798 101.457C104.317 102.734 104.58 104.101 104.57 105.48C104.505 108.246 103.363 110.878 101.387 112.814C99.4111 114.751 96.7572 115.84 93.9903 115.85V115.87Z" fill="#F7F7F7"></path> <path d="M72.0203 119.6C72.0203 119.17 72.0203 118.74 72.0203 118.31V81.07C72.0003 80.7136 72.0003 80.3564 72.0203 80C72.0903 79.22 71.6903 79 71.0203 79C69.8803 79 68.7303 79 67.5903 79C65.5903 79 65.8703 79 65.8703 80.73C65.8703 88.22 65.8703 95.73 65.8703 103.2C65.8983 104.631 65.7641 106.06 65.4703 107.46C65.1349 109.376 64.2227 111.143 62.8557 112.526C61.4886 113.909 59.7319 114.842 57.8203 115.2C55.944 115.705 53.9591 115.634 52.1239 114.995C50.2886 114.357 48.6881 113.181 47.5303 111.62C46.0112 109.611 45.2402 107.136 45.3503 104.62C45.3503 97.9867 45.3503 91.3533 45.3503 84.72C45.3503 83.15 45.3503 81.58 45.3503 80.01C45.3503 79.26 45.0503 79.01 44.3503 79.01C43.0003 79.01 41.6403 79.07 40.2903 79.01C39.2003 78.95 38.9903 79.4 39.0003 80.39C39.0003 88.74 39.0003 97.08 39.0503 105.39C39.0436 107.178 39.3308 108.955 39.9003 110.65C43.7403 121.84 57.1103 123.65 64.5203 117.74C64.9003 117.44 65.1803 116.97 65.9203 116.87C65.9203 117.78 65.9203 118.56 65.9203 119.34C65.9203 120.12 66.0403 120.44 66.8403 120.42C68.2703 120.42 69.7003 120.42 71.1203 120.42C71.7503 120.49 72.0403 120.2 72.0203 119.6Z" fill="#F7F7F7"></path> <path d="M142.77 114.66L138.5 111.54C135.11 115.36 131.06 116.94 126.19 115.24C124.509 114.677 123.014 113.667 121.865 112.317C120.716 110.967 119.957 109.329 119.67 107.58C120.41 107.305 121.208 107.219 121.99 107.33C128.91 107.33 135.82 107.33 142.74 107.33C143.48 107.33 144.28 107.57 144.32 106.27C144.67 96.45 137.94 90.02 129.88 89.7C126.823 89.5646 123.794 90.3236 121.162 91.8839C118.53 93.4442 116.411 95.7382 115.063 98.4849C113.715 101.232 113.197 104.312 113.573 107.348C113.949 110.384 115.203 113.245 117.18 115.58C121.31 120.26 126.58 121.77 132.62 120.88C134.647 120.591 136.593 119.89 138.338 118.82C140.084 117.75 141.592 116.335 142.77 114.66V114.66ZM128.45 94.91C130.702 94.7764 132.924 95.4825 134.686 96.8917C136.448 98.301 137.625 100.313 137.99 102.54H119.99C120.14 98.8 124.45 94.99 128.45 94.91Z" fill="#F7F7F7"></path> <path d="M149.45 120.49C150.59 120.49 151.73 120.49 152.87 120.49C154.47 120.49 154.49 120.49 154.49 118.84C154.49 113.93 154.49 109.01 154.49 104.1C154.476 102.888 154.614 101.678 154.9 100.5C155.186 99.2433 155.856 98.1064 156.816 97.2465C157.776 96.3866 158.98 95.8462 160.26 95.7002C161.041 95.6236 161.826 95.5968 162.61 95.6201C163.3 95.6201 163.67 95.4201 163.61 94.6201C163.61 93.4101 163.61 92.2002 163.61 90.9902C163.61 90.3902 163.42 90.0701 162.76 90.0501C160.13 89.9801 157.65 90.3301 155.66 92.3001C155.33 92.6301 155.13 93.1702 154.55 93.2002C154.13 92.2702 154.95 90.9201 154.06 90.4001C153.17 89.8801 152.12 90.2501 151.13 90.2301H150.06C148.35 90.2301 148.31 90.0801 148.31 91.9701C148.31 100.87 148.31 109.773 148.31 118.68C148.31 118.9 148.31 119.11 148.31 119.32C148.3 120.2 148.65 120.51 149.45 120.49Z" fill="#F7F7F7"></path> </svg> 